HIERARCHY
ROOT Pelvis
{
	OFFSET 0.000000 0.000000 0.000000
	CHANNELS 6 Xposition Yposition Zposition Xrotation Yrotation Zrotation
	JOINT LeftUpLeg_virtual
	{
		OFFSET 0.000000 0.000000 0.000000
		CHANNELS 3 Xrotation Yrotation Zrotation
		JOINT LeftUpLeg
		{
			OFFSET 18.735201 -5.666702 -4.541200
			CHANNELS 3 Xrotation Yrotation Zrotation
			JOINT LeftLeg
			{
				OFFSET -0.021200 -31.938179 0.493100
				CHANNELS 3 Xrotation Yrotation Zrotation
				JOINT LeftFoot
				{
					OFFSET 0.021200 -31.938179 -4.336299
					CHANNELS 3 Xrotation Yrotation Zrotation
					JOINT LeftToeBase
					{
						OFFSET 0.943001 -26.722000 15.023500
						CHANNELS 3 Xrotation Yrotation Zrotation
						End Site
						{
							OFFSET 0 0 0
						}
					}
				}
			}
		}
	}
	JOINT RightUpLeg_virtual
	{
		OFFSET 0.000000 0.000000 0.000000
		CHANNELS 3 Xrotation Yrotation Zrotation
		JOINT RightUpLeg
		{
			OFFSET -18.735201 -5.666702 -4.541200
			CHANNELS 3 Xrotation Yrotation Zrotation
			JOINT RightLeg
			{
				OFFSET 0.018946 -31.938133 0.493100
				CHANNELS 3 Xrotation Yrotation Zrotation
				JOINT RightFoot
				{
					OFFSET -0.018946 -31.938126 -4.336299
					CHANNELS 3 Xrotation Yrotation Zrotation
					JOINT RightToeBase
					{
						OFFSET -0.943001 -26.722004 15.023500
						CHANNELS 3 Xrotation Yrotation Zrotation
						End Site
						{
							OFFSET 0 0 0
						}
					}
				}
			}
		}
	}
	JOINT Hips_virtual
	{
		OFFSET 0.000000 0.000000 0.000000
		CHANNELS 3 Xrotation Yrotation Zrotation
		JOINT Hips
		{
			OFFSET -0.000000 -0.000000 -0.000000
			CHANNELS 3 Xrotation Yrotation Zrotation
			JOINT Spine
			{
				OFFSET 0.000000 10.199997 -0.299500
				CHANNELS 3 Xrotation Yrotation Zrotation
				JOINT Spine1
				{
					OFFSET 0.000000 11.900002 -1.516600
					CHANNELS 3 Xrotation Yrotation Zrotation
					JOINT Spine2
					{
						OFFSET 0.000000 13.600006 -2.842500
						CHANNELS 3 Xrotation Yrotation Zrotation
						JOINT Neck_virtual
						{
							OFFSET 0.000000 0.000000 0.000000
							CHANNELS 3 Xrotation Yrotation Zrotation
							JOINT Neck
							{
								OFFSET 0.000000 9.624100 -2.890100
								CHANNELS 3 Xrotation Yrotation Zrotation
								JOINT Head
								{
									OFFSET 0.000000 14.068802 -1.351900
									CHANNELS 3 Xrotation Yrotation Zrotation
									End Site
									{
										OFFSET 0 0 0
									}
								}
							}
						}
						JOINT LeftShoulder_virtual
						{
							OFFSET 0.000000 0.000000 0.000000
							CHANNELS 3 Xrotation Yrotation Zrotation
							JOINT LeftShoulder
							{
								OFFSET 15.263000 10.923401 -0.547700
								CHANNELS 3 Xrotation Yrotation Zrotation
								JOINT LeftArm
								{
									OFFSET 25.438599 -2.830597 -13.032500
									CHANNELS 3 Xrotation Yrotation Zrotation
									JOINT LeftForeArm
									{
										OFFSET 29.960503 0.000000 0.000000
										CHANNELS 3 Xrotation Yrotation Zrotation
										JOINT LeftHand
										{
											OFFSET 27.849251 0.000000 0.000000
											CHANNELS 3 Xrotation Yrotation Zrotation
											End Site
											{
												OFFSET 0 0 0
											}
										}
									}
								}
							}
						}
						JOINT RightShoulder_virtual
						{
							OFFSET 0.000000 0.000000 0.000000
							CHANNELS 3 Xrotation Yrotation Zrotation
							JOINT RightShoulder
							{
								OFFSET -15.263000 10.923401 -0.547700
								CHANNELS 3 Xrotation Yrotation Zrotation
								JOINT RightArm
								{
									OFFSET -25.438599 -2.830597 -13.032500
									CHANNELS 3 Xrotation Yrotation Zrotation
									JOINT RightForeArm
									{
										OFFSET -29.960503 0.000000 0.000000
										CHANNELS 3 Xrotation Yrotation Zrotation
										JOINT RightHand
										{
											OFFSET -27.849251 0.000000 0.000000
											CHANNELS 3 Xrotation Yrotation Zrotation
											End Site
											{
												OFFSET 0 0 0
											}
										}
									}
								}
							}
						}
					}
				}
			}
		}
	}
}
MOTION
Frames: 6
Frame Time: 0.03333333
6.050616 70.658020 54.706772 0.000000 0.000000 0.000000 -14.511553 -41.641857 -8.759790 -50.943034 -7.985658 33.527876 59.667515 -9.411756 6.529689 0.758964 -9.979572 -30.564506 0.000000 0.000000 0.000000 -14.511553 -41.641857 -8.759790 -27.335930 4.793032 -44.786377 85.543796 13.970573 -9.533640 -11.735075 -10.735036 23.674284 0.000000 0.000000 0.000000 -14.511553 -41.641857 -8.759790 -0.000001 0.000001 0.000000 22.947655 5.495827 -9.486165 0.646536 0.929548 0.134782 0.000000 0.000000 0.000000 0.636327 0.960702 0.115373 3.608894 3.180655 -1.153071 0.000000 0.000000 0.000000 0.636327 0.960702 0.115373 0.727745 3.027003 -7.324551 -54.688594 2.382187 -44.353418 -179.999978 -66.001409 -179.999964 0.000000 0.000000 0.000000 0.636327 0.960702 0.115373 2.812979 13.874463 -5.932526 -45.155818 21.957414 84.432948 -179.999923 65.497409 179.999923 0.000000 0.000000 0.000000 
5.536487 71.050018 53.380867 0.000000 0.000000 0.000000 -13.730443 -41.553327 -7.785127 -49.815800 -6.913492 33.779377 54.797009 -9.643631 6.501795 3.362847 -10.455415 -31.505682 0.000000 0.000000 0.000000 -13.730443 -41.553327 -7.785127 -24.550878 2.629732 -44.627852 84.232939 14.865702 -9.513834 -18.307441 -14.424880 24.934937 0.000000 0.000000 0.000000 -13.730443 -41.553327 -7.785127 0.000000 0.000000 0.000000 21.165725 6.175299 -8.387808 1.010367 1.004088 -0.234458 0.000000 0.000000 0.000000 1.004577 1.022903 -0.248460 3.741473 3.158627 -1.356125 0.000000 0.000000 0.000000 1.004577 1.022903 -0.248460 0.722458 3.377162 -7.482014 -53.816078 2.392655 -44.340618 179.999964 -65.511459 179.999964 0.000000 0.000000 0.000000 1.004577 1.022903 -0.248460 2.844844 14.234614 -6.010197 -45.524030 21.500542 84.730232 -179.999896 65.590238 179.999896 0.000000 0.000000 0.000000 
5.028274 71.312790 51.992847 0.000000 0.000000 0.000000 -12.674511 -41.225676 -6.703361 -49.148081 -6.057774 33.821143 50.071519 -9.781162 6.408203 6.000666 -11.228952 -32.282524 0.000000 0.000000 0.000000 -12.674511 -41.225676 -6.703361 -21.564813 -0.006714 -44.668778 82.020798 14.807290 -8.381985 -25.498933 -17.021359 25.198067 0.000000 0.000000 0.000000 -12.674511 -41.225676 -6.703361 0.000001 0.000000 0.000000 19.315722 6.738471 -7.219426 1.352511 1.057873 -0.608382 0.000000 0.000000 0.000000 1.352142 1.065434 -0.615882 3.854970 3.130840 -1.550319 0.000000 0.000000 0.000000 1.352142 1.065434 -0.615882 0.720597 3.654624 -7.622849 -53.440821 2.217207 -44.400287 -179.999964 -65.283126 -179.999964 0.000000 0.000000 0.000000 1.352142 1.065434 -0.615882 2.810630 14.537264 -6.138982 -46.080192 20.947441 84.878809 -179.999923 65.647748 179.999923 0.000000 0.000000 0.000000 
4.558152 71.702759 50.463478 0.000000 0.000000 0.000000 -11.444747 -40.703652 -5.527372 -48.674845 -5.379610 33.644631 46.061542 -9.644003 6.117510 7.388079 -11.786344 -32.829591 0.000000 0.000000 0.000000 -11.444747 -40.703652 -5.527372 -19.450378 -2.518259 -44.191553 79.620799 14.050020 -6.933776 -31.455989 -18.392521 24.520417 0.000000 0.000000 0.000000 -11.444747 -40.703652 -5.527372 -0.000001 0.000003 0.000001 17.576978 7.113228 -6.130756 1.638938 1.089197 -0.969848 0.000000 0.000000 0.000000 1.644421 1.086869 -0.970826 3.927605 3.099970 -1.716141 0.000000 0.000000 0.000000 1.644421 1.086869 -0.970826 0.718279 3.843464 -7.721461 -53.487372 1.962357 -44.508795 -179.999923 -65.275517 -179.999937 0.000000 0.000000 0.000000 1.644421 1.086869 -0.970826 2.691446 14.753625 -6.327802 -46.723046 20.456838 84.821585 -179.999964 65.667740 179.999950 0.000000 0.000000 0.000000 
4.112261 72.435432 48.719177 0.000000 0.000000 0.000000 -10.154995 -40.031971 -4.260534 -48.201017 -4.578567 33.145713 42.789458 -9.550945 5.544382 7.478621 -11.702335 -32.895646 0.000000 0.000000 0.000000 -10.154995 -40.031971 -4.260534 -18.377771 -4.919804 -42.971210 77.353053 12.239375 -5.256552 -36.824958 -18.798919 22.064207 0.000000 0.000000 0.000000 -10.154995 -40.031971 -4.260534 0.000000 -0.000003 0.000000 16.076474 7.242451 -5.249832 1.874573 1.097752 -1.317246 0.000000 0.000000 0.000000 1.886065 1.087218 -1.312155 3.945188 3.067170 -1.840777 0.000000 0.000000 0.000000 1.886065 1.087218 -1.312155 0.717234 3.924102 -7.764513 -54.024450 1.701620 -44.671175 179.999882 -65.480484 179.999896 0.000000 0.000000 0.000000 1.886065 1.087218 -1.312155 2.470816 14.861044 -6.589034 -47.485804 20.109957 84.599836 179.999991 65.662625 180.000005 0.000000 0.000000 0.000000 
3.644986 73.258255 46.697884 0.000000 0.000000 0.000000 -8.940701 -39.363111 -3.001228 -48.190799 -3.907593 32.233951 41.369937 -9.369658 4.911525 6.361339 -11.224112 -32.170164 0.000000 0.000000 0.000000 -8.940701 -39.363111 -3.001228 -18.118357 -6.480915 -41.859419 75.603364 11.010331 -3.834002 -39.549838 -19.005976 21.097097 0.000000 0.000000 0.000000 -8.940701 -39.363111 -3.001228 0.000000 0.000002 0.000000 15.199211 7.205902 -4.852188 1.967291 1.088312 -1.565714 0.000000 0.000000 0.000000 1.983209 1.072286 -1.557290 3.905290 3.032730 -1.919548 0.000000 0.000000 0.000000 1.983209 1.072286 -1.557290 0.723257 3.882165 -7.755990 -54.923648 1.561699 -44.833768 179.999937 -65.845093 179.999909 0.000000 0.000000 0.000000 1.983209 1.072286 -1.557290 2.152830 14.844689 -6.922705 -48.169445 20.030578 84.273456 -179.999868 65.558662 179.999841 0.000000 0.000000 0.000000 
